HIERARCHY
ROOT Hips
{
	OFFSET -0.241770227768 -22.6432631704 2.48129553869
	CHANNELS 6 Xposition Yposition Zposition Zrotation Yrotation Xrotation
	JOINT LeftHip
	{
		OFFSET 6.61529213806 -9.00269624267 -0.755383830355
		CHANNELS 3 Zrotation Yrotation Xrotation
		JOINT LeftKnee
		{
			OFFSET 3.63948959904 -37.4768889521 -0.156133020755
			CHANNELS 3 Zrotation Yrotation Xrotation
			JOINT LeftFoot
			{
				OFFSET -1.42168193263 -39.5809675639 -4.19291319097
				CHANNELS 3 Zrotation Yrotation Xrotation
				End LeftToe
				{
                                  OFFSET 2.73179371284 -5.51787355439 11.9493298741
				}
			}
		}
	}
	JOINT RightHip
	{
		OFFSET -6.44935690218 -8.89514264778 -0.567752646718
		CHANNELS 3 Zrotation Yrotation Xrotation
		JOINT RightKnee
		{
			OFFSET -3.93925653332 -38.2049210975 -0.671554949206
			CHANNELS 3 Zrotation Yrotation Xrotation
			JOINT RightFoot
			{
				OFFSET 1.63667374423 -39.6058889168 -4.04479379351
				CHANNELS 3 Zrotation Yrotation Xrotation
				End RightToe
				{
                                        OFFSET -2.51372673426 -4.8141674474 12.3652621475
				}
			}
		}
	}
	JOINT Waist
	{
		OFFSET -0.260657511278 10.8805780363 -2.58102795787
		CHANNELS 3 Zrotation Yrotation Xrotation
		JOINT Spine
		{
			OFFSET 0.645579152613 13.870338312 0.394053992214
			CHANNELS 3 Zrotation Yrotation Xrotation
                        JOINT Chest
                        {
                            OFFSET 0.126826606478 5.40685454507 2.25671040606
                            CHANNELS 3 Zrotation Yrotation Xrotation
                            JOINT Neck
                            {
                                OFFSET -0.35030288191 21.2565314294 -3.81856859768
                                CHANNELS 3 Zrotation Yrotation Xrotation
                                End Head
                                {
                                        OFFSET 0.140128695769 26.8269379178 1.97691534084
                                }
                            }
                            JOINT LeftInnerShoulder
                            {
                                OFFSET 7.90918734363 12.0961741138 -3.10704562868
                                CHANNELS 3 Zrotation Yrotation Xrotation
                                JOINT LeftShoulder
                                {
                                        OFFSET 9.29717020297 2.95534833898 -0.894998199109
                                        CHANNELS 3 Zrotation Yrotation Xrotation
                                        JOINT LeftElbow
                                        {
                                                OFFSET 25.9243246402 -1.2960570333 -2.59637192883
                                                CHANNELS 3 Zrotation Yrotation Xrotation
                                                End LeftWrist
                                                {
                                                        OFFSET 24.9562993322 0.8377403849 -0.213508294653
                                                }
                                        }
                                }
                            }
                            JOINT RightInnerShoulder
                            {
                                OFFSET -8.27652967032 11.7628063538 -3.53208190825
                                CHANNELS 3 Zrotation Yrotation Xrotation
                                JOINT RightShoulder
                                {
                                        OFFSET -9.83141868037 3.23715959223 -0.855834882774
                                        CHANNELS 3 Zrotation Yrotation Xrotation
                                        JOINT RightElbow
                                        {
                                                OFFSET -25.2613843825 -1.34048766853 -2.02949902171
                                                CHANNELS 3 Zrotation Yrotation Xrotation
                                                End RightWrist
                                                {
                                                        OFFSET -25.5042174894 0.66447471189 -0.668498318068
                                                }
                                        }
                                }
                            }
                        }
                }
            }
}
MOTION
Frames: 12
Frame Time: 0.0333333333333
164.22888 3.96695 -0.37477 -115.97077 -9.48802 -1.46732 67.41038 22.13143 -27.15531 -20.68438 -25.26525 79.21622 -25.42372 18.93471 -0.46485 -28.85628 -22.38025 -30.51661 12.74021 15.00271 61.67676 23.60789 -21.39377 2.15668 -3.56786 11.39642 13.41214 -18.07112 6.58090 -13.18550 -9.34555 11.29506 0.92736 -12.77562 -3.15124 3.01673 29.70313 -2.71682 -19.06833 17.65457 -17.63264 -22.46888 2.72503 -11.89094 -21.58060 -47.86773 9.43722 -17.22361 -36.53282 5.58858 -42.00030 0.95113 -0.39725 -26.35996
177.37452 9.28194 -0.35179 -126.42765 -10.62370 -1.67173 71.52807 28.96470 -26.53027 -24.52551 -21.75606 83.59458 -24.70161 14.90136 -8.80894 -36.07707 -29.53499 -29.31409 13.12375 13.80979 58.14883 25.25709 -17.84667 -0.40587 -1.06750 12.93130 14.48077 -16.46501 6.86162 -15.13047 -8.42116 11.92524 0.97107 -13.61924 -3.80725 4.72947 30.90668 -2.91180 -17.70813 19.80828 -18.61127 -24.57555 3.06501 -17.00101 -14.79005 -47.33072 9.89692 -17.25829 -37.90876 8.11431 -45.10812 0.55425 3.57137 -22.65500
190.27818 10.92773 -0.33066 -135.00178 -3.13821 -5.95976 70.00638 33.63796 -33.47577 -21.02329 -19.71452 79.75231 -27.23453 14.07449 2.51945 -48.21532 -32.23361 -16.24771 11.87046 15.48533 52.65375 25.69925 -18.26415 0.79762 1.04228 10.55238 17.43950 -15.44903 3.93018 -11.52295 -7.49133 9.54407 -0.09641 -14.58737 -5.04438 7.42831 32.10453 -2.71452 -19.48181 18.44595 -22.19321 -26.66363 7.86495 -24.10112 -17.25871 -47.34483 9.97203 -14.46150 -37.05843 7.59024 -44.44520 0.38652 5.96869 -22.28404
203.77689 13.59069 -0.33307 -141.59384 -2.33510 -6.17291 74.75168 36.96591 -28.66109 -23.12621 -17.18805 78.25813 -25.48347 8.30750 -3.35108 -57.29183 -36.32825 -13.16425 9.77158 15.85952 44.83350 31.15311 -18.47875 8.84830 0.54280 10.80732 16.31941 -14.82409 3.27782 -10.55339 -8.13158 8.92319 -1.30072 -15.34871 -7.02837 7.73896 32.91859 -6.15151 -18.75583 22.11858 -24.74916 -33.28852 9.48809 -24.46431 -16.92041 -44.86540 9.67190 -13.89984 -31.62865 8.82182 -43.44335 -1.93638 7.07755 -21.93295
217.31739 13.85404 -0.27417 -148.88017 -1.26870 -6.11725 78.41722 36.54213 -20.34775 -24.04619 -18.54794 70.84924 -26.28566 5.70101 -6.09389 -62.43394 -37.19460 -13.43929 9.08285 16.89818 43.98347 35.06383 -19.05485 13.23057 -0.03292 8.74661 12.08649 -12.93530 2.70866 -6.94144 -7.92614 7.06398 -1.32618 -14.86847 -6.32209 8.27623 35.76498 -4.37926 -15.98584 18.51502 -23.91563 -33.35778 15.33667 -36.64105 -12.54184 -43.74215 7.97574 -12.71607 -25.49231 13.20551 -42.28313 -5.89798 11.92058 -16.83038
229.78123 15.92212 -0.16149 -157.99875 -0.11850 -8.60896 78.13196 34.02977 -15.75922 -23.07480 -20.63321 69.39782 -27.07416 6.45684 -4.94725 -65.51841 -35.97690 -10.85647 8.33460 17.95683 43.95257 32.89272 -17.75152 11.83698 1.16888 6.97004 13.04209 -9.85364 2.29157 -5.64131 -5.36312 5.95449 -1.40257 -15.63943 -6.36020 8.44496 36.08765 -4.69003 -15.89233 18.51708 -26.74045 -35.59948 15.72692 -34.15076 -19.81025 -40.67384 8.47535 -11.89959 -22.43777 16.32722 -42.02395 -7.92502 9.90717 -27.39850
244.43966 15.36187 -0.03369 -166.90610 -0.19415 -7.36806 75.89601 32.21466 -11.28083 -24.44159 -20.49373 67.86581 -23.19162 5.60558 -9.88579 -67.79296 -35.52779 -12.11056 10.35024 20.17563 47.36432 34.54572 -15.81704 10.12677 2.19287 6.46454 11.40844 -6.62681 1.18994 -6.20296 -3.99997 5.00305 -1.60501 -15.78900 -3.15151 10.77663 35.97081 -8.46907 -17.67130 24.12151 -25.86541 -37.01019 9.71523 -29.76141 -14.77251 -35.92933 10.08235 -11.80745 -19.53834 17.69518 -36.10766 -8.07323 16.89688 -20.57846
259.06710 15.81371 0.12613 -176.46945 -0.49764 -7.52675 75.97504 31.63946 -5.03092 -20.81040 -17.71099 61.21993 -22.11370 6.99367 -13.00416 -72.48457 -36.67105 -6.54490 5.45942 16.90145 35.69858 36.33061 -20.39324 17.14532 2.56695 6.91903 10.07677 -3.58455 0.79053 -4.89945 -2.03440 4.61328 -1.51706 -14.88033 -6.05171 11.11957 39.06662 -8.17165 -16.05060 25.73706 -24.78493 -40.28015 4.39129 -27.30051 -9.55054 -35.23440 8.46119 -10.99808 -13.88184 17.25877 -33.80954 -9.67076 17.61113 -21.11456
276.37477 14.76519 0.24494 173.04852 -1.20103 -9.21560 78.21152 31.99794 2.95519 -22.61806 -19.75288 59.91683 -26.59828 8.91832 -5.11736 -75.83355 -40.86954 -8.95383 8.29345 17.11876 40.96498 38.01692 -16.96766 17.85884 5.42799 5.34646 13.03883 -1.05491 1.27110 -4.46486 0.15666 5.28792 -1.15541 -16.96855 -6.25528 9.64061 40.35063 -7.88219 -14.93244 26.54708 -19.07220 -36.78830 1.89599 -34.17968 -7.40214 -34.94358 10.21254 -9.85443 -12.69451 11.64186 -32.77357 -12.21976 25.58369 -25.22334
295.38534 7.47264 0.25972 160.59410 -4.05964 -11.64878 74.97115 33.38337 3.05374 -28.79400 -12.14658 82.72533 -21.21751 7.14317 -10.97567 -77.31685 -45.45533 -15.31819 14.44777 18.48128 56.05632 40.62461 -15.19023 20.72201 7.28101 3.85831 16.80002 2.73068 1.37284 -5.21700 1.17889 4.32737 -0.47026 -14.94256 -4.33919 9.17267 39.71245 -12.07402 -17.65484 35.02399 -17.22981 -46.60569 -2.13192 -20.34150 -16.76306 -31.54480 11.46877 -9.12100 -12.30264 9.77899 -29.38097 -14.77755 31.12883 -25.46129
307.52694 0.71979 0.36074 146.30614 -4.16806 -8.31479 58.85334 30.23594 1.15705 -24.23696 -8.57734 72.07234 -16.64609 11.31935 -13.87985 -73.02148 -36.75125 -14.94798 10.44428 25.13225 49.98338 39.92402 -18.56967 24.38072 9.24282 1.80781 14.19917 7.16019 -0.95262 -6.51972 3.88447 2.97135 1.43455 -12.74740 -3.93161 12.15315 43.54891 -10.25055 -18.67214 36.89183 -15.87806 -49.75888 -2.52233 -15.03317 -18.75860 -32.61187 9.45546 -10.45094 -10.13491 14.11636 -25.66925 -8.82556 27.52724 -16.82993
322.81880 -8.84492 0.33816 131.63861 -7.06766 -9.88341 43.16530 28.63046 -1.25187 -20.90326 -3.13558 67.27732 -11.57547 13.83569 -14.35007 -72.10775 -32.61979 -13.35896 4.29567 29.02846 39.65538 41.11236 -23.38828 32.58801 11.64660 0.62968 15.40722 11.76636 -1.53902 -4.41353 5.18463 3.40636 3.15575 -13.27693 -7.55013 18.45008 47.58872 -11.39432 -19.28891 38.57458 -15.31730 -54.98778 -2.49393 -9.17542 -11.24821 -31.17747 10.22419 -9.48023 -6.84522 12.03017 -25.26667 -11.16217 23.74982 -11.71433
